<?xml version="1.0" encoding="utf-8"?>
<!-- Generator: Adobe Illustrator 24.1.0, SVG Export Plug-In . SVG Version: 6.00 Build 0)  -->
<svg version="1.1" id="Layer_1" xmlns="http://www.w3.org/2000/svg" xmlns:xlink="http://www.w3.org/1999/xlink" x="0px" y="0px"
	 viewBox="0 0 800 800" style="enable-background:new 0 0 800 800;" xml:space="preserve">
<style type="text/css">
	.st0{fill:#2FC7FF;}
	.st1{fill:#FFFFFF;}
	.st2{fill:none;stroke:#FFFFFF;stroke-miterlimit:10;}
</style>
<path class="st0" d="M376,11.5l-316.8,174c-13.3,7.3-24,25.4-24,40.5v346.1c0,15.1,10.7,33.2,24,40.5L376,786.7
	c13.3,7.3,34.7,7.3,47.9,0l316.8-174.1c13.3-7.3,24-25.4,24-40.5V226c0-15.1-10.7-33.2-24-40.5L424,11.5C417.3,7.8,408.7,6,400,6
	S382.6,7.8,376,11.5"/>
<path class="st1" d="M781.5,657.8l-4.5,7.6c-0.2,0.3-0.2,0.8,0,1.1l4.3,7.2c0.2,0.3,0.6,0.6,1,0.6l8.8-0.3c0.4,0,0.8-0.3,1-0.6
	l4.5-7.6c0.2-0.3,0.2-0.8,0-1.1l-4.3-7.2c-0.2-0.3-0.6-0.6-1-0.6l-8.8,0.3c-0.2,0-0.4,0.1-0.6,0.2
	C781.7,657.5,781.6,657.6,781.5,657.8"/>
<path class="st2" d="M736.2,631.5l-50.5-3.4c-2.1-0.1-4.8,1.2-5.9,3l-26.2,40.8c-1.1,1.8-1.2,4.7-0.2,6.6l24.2,44.5
	c1,1.9,3.5,3.5,5.6,3.6l50.5,3.4c2.1,0.1,4.8-1.2,5.9-3l26.2-40.8c1.1-1.8,1.2-4.7,0.2-6.6l-24.2-44.5c-0.5-0.9-1.4-1.8-2.4-2.5
	S737.3,631.5,736.2,631.5"/>
</svg>
