<?xml version="1.0" encoding="utf-8"?>
<!-- Generator: Adobe Illustrator 24.1.0, SVG Export Plug-In . SVG Version: 6.00 Build 0)  -->
<svg version="1.1" id="Layer_1" xmlns="http://www.w3.org/2000/svg" xmlns:xlink="http://www.w3.org/1999/xlink" x="0px" y="0px"
	 viewBox="0 0 1920 1080" style="enable-background:new 0 0 1920 1080;" xml:space="preserve">
<style type="text/css">
	.st0{fill:url(#SVGID_1_);}
	.st1{fill:url(#SVGID_2_);}
	.st2{fill:url(#SVGID_3_);}
	.st3{fill:url(#SVGID_4_);}
	.st4{fill:none;stroke:url(#SVGID_5_);stroke-width:3;stroke-miterlimit:10;}
</style>
<linearGradient id="SVGID_1_" gradientUnits="userSpaceOnUse" x1="131.661" y1="1021.492" x2="635.9413" y2="1021.492" gradientTransform="matrix(2.220446e-16 -1 1 2.220446e-16 -556.6873 1342.3025)">
	<stop  offset="0" style="stop-color:#8757FB"/>
	<stop  offset="1" style="stop-color:#3BC8FD"/>
</linearGradient>
<path class="st0" d="M300.7,1146l223,63.7c9.3,2.7,22.4-0.8,29.2-7.6l156.3-157.8c6.8-6.9,10.1-20,7.4-29.3l-65.8-222.4
	c-2.8-9.3-12.5-19-21.9-21.7l-223-63.7c-9.3-2.7-22.4,0.8-29.2,7.6L220.4,872.7c-6.8,6.9-10.1,20-7.4,29.3l65.8,222.4
	c1.4,4.7,4.5,9.4,8.5,13.3C291.3,1141.6,296.1,1144.7,300.7,1146"/>
<linearGradient id="SVGID_2_" gradientUnits="userSpaceOnUse" x1="804.2053" y1="365.7175" x2="866.0437" y2="472.8248" gradientTransform="matrix(0.6449 0.7643 -0.7643 0.6449 563.8958 3.5361)">
	<stop  offset="0" style="stop-color:#FFDB6B"/>
	<stop  offset="1" style="stop-color:#F65C5F"/>
</linearGradient>
<path class="st1" d="M807.1,855.9l-57.3,1.3c-2.4,0.1-5.2,1.8-6.3,3.9l-25.4,48.7c-1.1,2.1-0.9,5.5,0.4,7.5l31.8,47.7
	c1.3,2,4.3,3.6,6.7,3.5l57.3-1.3c2.4-0.1,5.2-1.8,6.3-3.9l25.4-48.7c1.1-2.1,0.9-5.5-0.4-7.5l-31.8-47.7c-0.7-1-1.8-1.9-3-2.5
	C809.6,856.3,808.3,855.9,807.1,855.9"/>
<linearGradient id="SVGID_3_" gradientUnits="userSpaceOnUse" x1="-142.8386" y1="608.9675" x2="-122.5717" y2="565.8162" gradientTransform="matrix(0.9964 8.440652e-02 -8.440652e-02 0.9964 234.1843 -273.166)">
	<stop  offset="0" style="stop-color:#46E7C5"/>
	<stop  offset="0.797" style="stop-color:#FFDB6B"/>
</linearGradient>
<path class="st2" d="M44,279.2l-15,15.7c-0.6,0.7-0.9,1.9-0.6,2.7l6.2,19.8c0.3,0.9,1.2,1.7,2.1,1.9l21.3,4.3
	c0.9,0.2,2.1-0.2,2.7-0.9l15-15.7c0.6-0.7,0.9-1.9,0.6-2.7l-6.2-19.8c-0.3-0.9-1.2-1.7-2.1-1.9l-21.3-4.2c-0.4-0.1-1,0-1.5,0.1
	C44.8,278.6,44.3,278.9,44,279.2"/>
<linearGradient id="SVGID_4_" gradientUnits="userSpaceOnUse" x1="130.0077" y1="293.5203" x2="175.5129" y2="372.3377">
	<stop  offset="0" style="stop-color:#8757FB"/>
	<stop  offset="1" style="stop-color:#3BC8FD"/>
</linearGradient>
<path class="st3" d="M133,292.2L106.5,325c-1.1,1.4-1.5,3.8-0.8,5.4l15.3,37.3c0.7,1.6,2.6,3.1,4.4,3.3l41.9,4.7
	c1.8,0.2,4.1-0.8,5.2-2.1l26.5-32.8c1.1-1.4,1.5-3.8,0.8-5.4l-15.3-37.3c-0.7-1.6-2.6-3.1-4.4-3.3l-41.9-4.7
	c-0.9-0.1-1.9,0.1-2.8,0.5C134.4,290.9,133.6,291.5,133,292.2"/>
<linearGradient id="SVGID_5_" gradientUnits="userSpaceOnUse" x1="-206.0092" y1="762.3666" x2="542.8231" y2="762.3666">
	<stop  offset="0" style="stop-color:#8757FB"/>
	<stop  offset="1" style="stop-color:#3BC8FD"/>
</linearGradient>
<path class="st4" d="M-107.4,518.7l-95.7,329c-4,13.8,1,33.1,11.1,43.2l232,232c10.1,10.1,29.5,15.1,43.2,11.1l329-95.7
	c13.8-4,28.1-18.4,32.1-32.1l95.7-329c4-13.8-1-33.1-11.1-43.2l-232-232c-10.1-10.1-29.5-15.1-43.2-11.1l-329,95.7
	c-6.9,2-13.9,6.6-19.7,12.4S-105.4,511.8-107.4,518.7"/>
</svg>
