<?xml version="1.0" encoding="utf-8"?>
<!-- Generator: Adobe Illustrator 24.1.0, SVG Export Plug-In . SVG Version: 6.00 Build 0)  -->
<svg version="1.1" id="Layer_1" focusable="false" xmlns="http://www.w3.org/2000/svg" xmlns:xlink="http://www.w3.org/1999/xlink"
	 x="0px" y="0px" viewBox="0 0 512 512" style="enable-background:new 0 0 512 512;" xml:space="preserve">
<style type="text/css">
	.st0{fill:#2FC7FF;}
</style>
<path class="st0" d="M484,285.3c-0.4,15.5-13.6,27.7-29.1,27.7h-49.3v14.2c0,19.5-4.3,37.9-12.1,54.5l53.6,53.6
	c11.1,11.1,11.1,29.2,0,40.3c-11.1,11.1-29.2,11.1-40.3,0l-48.7-48.7c-22,17.9-50.1,28.6-80.7,28.6V238.2c0-5.9-4.8-10.7-10.7-10.7
	h-21.4c-5.9,0-10.7,4.8-10.7,10.7v217.3c-30.6,0-58.7-10.7-80.7-28.6l-48.7,48.7c-11.1,11.1-29.2,11.1-40.3,0
	c-11.1-11.1-11.1-29.2,0-40.3l53.6-53.6c-7.8-16.5-12.1-35-12.1-54.5V313H57.1c-15.5,0-28.7-12.2-29.1-27.7
	C27.6,269.2,40.5,256,56.5,256h49.9v-52.3l-41.5-41.5c-11.1-11.1-11.1-29.2,0-40.3c11.1-11.1,29.2-11.1,40.3,0l48.7,48.7h204.4
	l48.7-48.7c11.1-11.1,29.2-11.1,40.3,0c11.1,11.1,11.1,29.2,0,40.3l-41.5,41.5V256h49.9C471.5,256,484.4,269.2,484,285.3z M256.9,28
	c-55.1,0-99.7,44.7-99.7,99.7h199.5C356.6,72.7,312,28,256.9,28z"/>
</svg>
