<svg width="32" height="32" viewBox="0 0 32 32" fill="none" xmlns="http://www.w3.org/2000/svg">
<path d="M31.3736 6.6496L25.3402 0.616211C24.9435 0.22155 24.4067 0 23.8472 0C23.2876 0 22.7508 0.22155 22.3542 0.616211L19 3.97037L28.0296 13L31.3838 9.64584C31.5801 9.44856 31.7355 9.21451 31.8413 8.95708C31.947 8.69965 32.0009 8.4239 32 8.1456C31.999 7.86731 31.9432 7.59193 31.8357 7.33523C31.7282 7.07853 31.5712 6.84554 31.3736 6.6496V6.6496Z" fill="#9CA0A3"/>
<path d="M1.97925 21.4956L0.0483209 29.5375C-0.0182896 29.8315 -0.0160061 30.1362 0.0550043 30.4292C0.126015 30.7222 0.263958 30.9962 0.458758 31.2312C0.653558 31.4662 0.900293 31.6562 1.18094 31.7874C1.46158 31.9185 1.76905 31.9876 2.08088 31.9894C2.22617 32.0035 2.37258 32.0035 2.51788 31.9894L10.9022 30.126L27 14.65L18.0161 6L1.97925 21.4956Z" fill="#9CA0A3"/>
</svg>
