<?xml version="1.0" encoding="utf-8"?>
<!-- Generator: Adobe Illustrator 24.1.0, SVG Export Plug-In . SVG Version: 6.00 Build 0)  -->
<svg version="1.1" id="Layer_1" xmlns="http://www.w3.org/2000/svg" xmlns:xlink="http://www.w3.org/1999/xlink" x="0px" y="0px"
	 viewBox="0 0 26.1 26.1" style="enable-background:new 0 0 26.1 26.1;" xml:space="preserve">
<style type="text/css">
	.st0{fill:none;stroke:#3BC8FD;stroke-width:2;stroke-linecap:round;stroke-linejoin:round;}
</style>
<path class="st0" d="M11.5,5.5h-7c-0.5,0-1,0.2-1.4,0.6C2.7,6.5,2.5,7,2.5,7.5v14c0,0.5,0.2,1,0.6,1.4c0.4,0.4,0.9,0.6,1.4,0.6h14
	c0.5,0,1-0.2,1.4-0.6c0.4-0.4,0.6-0.9,0.6-1.4v-7"/>
<path class="st0" d="M19,4c0.4-0.4,0.9-0.6,1.5-0.6S21.6,3.6,22,4c0.4,0.4,0.6,0.9,0.6,1.5S22.4,6.6,22,7l-9.5,9.5l-4,1l1-4L19,4z"
	/>
</svg>
