<?xml version="1.0" encoding="utf-8"?>
<!-- Generator: Adobe Illustrator 24.1.0, SVG Export Plug-In . SVG Version: 6.00 Build 0)  -->
<svg version="1.1" id="Layer_1" focusable="false" xmlns="http://www.w3.org/2000/svg" xmlns:xlink="http://www.w3.org/1999/xlink"
	 x="0px" y="0px" viewBox="0 0 448 512" style="enable-background:new 0 0 448 512;" xml:space="preserve">
<style type="text/css">
	.st0{fill:#2FC7FF;}
</style>
<path class="st0" d="M393.4,373.2l-93.1-149.8v-120h6.4c10.6,0,19.1-8.5,19.1-19.1V71.6c0-10.6-8.5-19.1-19.1-19.1H141.4
	c-10.6,0-19.1,8.5-19.1,19.1v12.7c0,10.6,8.5,19.1,19.1,19.1h6.4v120L54.6,373.2c-23.3,37.4,3.6,86.2,47.8,86.2h243.3
	C389.9,459.4,416.7,410.6,393.4,373.2z M155.6,306.9l38.3-61.7c2.9-4.1,4.6-9.2,4.6-14.6V103.4h50.9v127.1c0,5.5,1.7,10.5,4.6,14.6
	l38.3,61.7H155.6z"/>
</svg>
