<svg width="66" height="66" viewBox="0 0 66 66" fill="none" xmlns="http://www.w3.org/2000/svg">
<path fill-rule="evenodd" clip-rule="evenodd" d="M49.2635 16.7366C48.4824 15.9556 47.2161 15.9556 46.435 16.7366L33 30.1716L19.565 16.7366C18.7839 15.9556 17.5176 15.9556 16.7365 16.7366C15.9555 17.5176 15.9555 18.784 16.7365 19.565L30.1716 33.0001L16.7365 46.4351C15.9555 47.2161 15.9555 48.4825 16.7365 49.2635C17.5176 50.0446 18.7839 50.0446 19.565 49.2635L33 35.8285L46.435 49.2635C47.2161 50.0446 48.4824 50.0446 49.2635 49.2635C50.0445 48.4825 50.0445 47.2161 49.2635 46.4351L35.8284 33.0001L49.2635 19.565C50.0445 18.784 50.0445 17.5176 49.2635 16.7366Z" fill="#525252"/>
</svg>
